<?xml version="1.0" encoding="utf-8"?>
<!-- Svg Vector Icons : http://www.onlinewebfonts.com/icon -->
<!DOCTYPE svg PUBLIC "-//W3C//DTD SVG 1.1//EN" "http://www.w3.org/Graphics/SVG/1.1/DTD/svg11.dtd">
<svg version="1.1" xmlns="http://www.w3.org/2000/svg" xmlns:xlink="http://www.w3.org/1999/xlink" x="0px" y="0px" viewBox="0 0 256 256" enable-background="new 0 0 256 256" xml:space="preserve">
<metadata> Svg Vector Icons : http://www.onlinewebfonts.com/icon </metadata>
<g><g><path fill="#000000" d="M98.5,187C49.7,187,10,147.3,10,98.5C10,49.7,49.7,10,98.5,10c48.8,0,88.5,39.7,88.5,88.5C187,147.3,147.3,187,98.5,187z M98.5,29.7c-38,0-68.8,30.9-68.8,68.8c0,38,30.9,68.8,68.8,68.8c38,0,68.8-30.9,68.8-68.8C167.3,60.5,136.5,29.7,98.5,29.7z"/><path fill="#000000" d="M221.4,246c-6.3,0-12.6-2.4-17.4-7.2l-68.3-68.4c-3.9-3.8-3.9-10.1,0-13.9c3.8-3.9,10.1-3.9,13.9,0l68.4,68.4c1.9,1.9,5,1.9,6.9,0c1-1,1.4-2.1,1.4-3.5c0-1.3-0.5-2.5-1.4-3.5l-42.4-42.5c-3.9-3.8-3.9-10.1,0-13.9c3.8-3.9,10.1-3.9,13.9,0l42.4,42.4c4.6,4.6,7.2,10.8,7.2,17.4s-2.6,12.7-7.2,17.4C234,243.6,227.7,246,221.4,246z"/><path fill="#000000" d="M59.2,108.3c-5.4,0-9.8-4.4-9.8-9.8c0-27.1,22.1-49.2,49.2-49.2c5.4,0,9.8,4.4,9.8,9.8c0,5.4-4.4,9.8-9.8,9.8C82.3,69,69,82.2,69,98.5C69,103.9,64.6,108.3,59.2,108.3z"/></g></g>
</svg>