<?xml version="1.0" encoding="utf-8"?>
<!-- Svg Vector Icons : http://www.onlinewebfonts.com/icon -->
<!DOCTYPE svg PUBLIC "-//W3C//DTD SVG 1.1//EN" "http://www.w3.org/Graphics/SVG/1.1/DTD/svg11.dtd">
<svg version="1.1" xmlns="http://www.w3.org/2000/svg" xmlns:xlink="http://www.w3.org/1999/xlink" x="0px" y="0px" viewBox="0 0 256 256" enable-background="new 0 0 256 256" xml:space="preserve">
<metadata> Svg Vector Icons : http://www.onlinewebfonts.com/icon </metadata>
<g><g><path fill="#fff" d="M128,99.7c-15.7,0-28.3,12.7-28.3,28.3c0,15.6,12.7,28.3,28.3,28.3c15.7,0,28.3-12.7,28.3-28.3C156.3,112.3,143.6,99.7,128,99.7z M128,66.6c15.7,0,28.3-12.7,28.3-28.3S143.6,10,128,10c-15.7,0-28.3,12.7-28.3,28.3S112.3,66.6,128,66.6z M128,189.4c-15.7,0-28.3,12.7-28.3,28.3S112.3,246,128,246s28.3-12.7,28.3-28.3S143.6,189.4,128,189.4z"/></g></g>
</svg>